<svg width="256" height="256" viewBox="0 0 256 256" fill="none" xmlns="http://www.w3.org/2000/svg">
<path d="M43.3941 9.89076C41.9227 10.3658 39.9767 11.221 39.0749 11.7436C36.4645 13.4063 32.6199 17.7771 31.2435 20.7225L29.962 23.478V128.47V233.463L31.4808 236.551C33.4268 240.494 37.1764 244.247 41.1158 246.195L44.2009 247.715L63.2811 247.857L82.4088 248L82.3138 233.605L82.1714 219.21L70.4481 219.068L58.6772 218.973V128.47V37.9679H70.543H82.4088V23.478V8.98811L64.2778 9.03561C48.0929 9.03561 45.8147 9.13063 43.3941 9.89076Z" fill="black"/>
<path d="M173.063 23.478V37.9679H184.929H196.795V128.47V218.973L185.071 219.068L173.301 219.21L173.158 233.605L173.063 248L192.191 247.857L211.271 247.715L214.404 246.195C218.248 244.294 222.425 240.019 224.228 236.218L225.51 233.463V128.47V23.478L223.944 20.295C221.95 16.2568 217.441 11.8861 213.549 10.3183C210.844 9.22565 210.464 9.22565 191.954 9.08313L173.063 8.9406V23.478Z" fill="black"/>
<path d="M120.569 53.978C118.765 54.3581 116.82 56.8285 116.867 58.7763C116.867 61.0567 153.176 147.378 154.837 149.136C155.787 150.086 156.451 150.324 158.35 150.324C160.296 150.324 160.913 150.086 162.004 148.994L163.333 147.711L163.476 102.911C163.571 70.7483 163.428 57.7786 163.049 56.876C162.764 56.1634 161.957 55.2132 161.245 54.7382C160.106 53.9305 158.445 53.883 140.788 53.8355C130.204 53.788 121.091 53.8355 120.569 53.978Z" fill="#E10C42"/>
<path d="M94.939 106.854C94.3695 107.044 93.4677 107.852 92.8981 108.565L91.9014 109.847V154.552C91.9014 198.022 91.9488 199.304 92.8506 200.777C94.322 203.248 95.3662 203.343 116.44 203.2L135.567 203.058L137.039 201.585C138.178 200.397 138.558 199.637 138.558 198.259C138.558 196.882 133.954 185.48 120.379 153.412C110.412 129.753 101.916 109.847 101.584 109.135C100.397 106.854 97.4071 105.857 94.939 106.854Z" fill="black"/>
</svg>
