<svg width="512" height="512" viewBox="0 0 512 512" fill="none" xmlns="http://www.w3.org/2000/svg">
<g clip-path="url(#clip0)">
<path d="M312.647 345.551C221.007 419.06 122.579 297.628 213.423 223.195C213.78 222.902 214.194 222.65 214.618 222.469L472.998 111.883C477.679 109.88 482.01 115.337 478.995 119.44L313.544 344.616C313.291 344.961 312.98 345.284 312.647 345.551Z" fill="#666666"/>
<circle cx="261.162" cy="285.305" r="38.4685" transform="rotate(50.9794 261.162 285.305)" fill="white"/>
<path d="M490 338C490 288.632 474.777 242.819 448.769 205M20 338C20 208.213 125.213 103 255 103C299.048 103 340.265 115.119 375.5 136.204" stroke="#666666" stroke-width="30"/>
</g>
<defs>
<clipPath id="clip0">
<rect width="512" height="512" fill="white"/>
</clipPath>
</defs>
</svg>
